<?xml version="1.0" encoding="UTF-8"?>
<svg height="16px" viewBox="0 0 16 16" width="16px" xmlns="http://www.w3.org/2000/svg">
    <path d="m 2.90625 1.234375 h 11.09375 c 0.964844 0 1.746094 0.78125 1.746094 1.746094 v 10.039062 c 0 0.960938 -0.78125 1.742188 -1.746094 1.742188 h -11.09375 c -0.960938 0 -1.742188 -0.78125 -1.742188 -1.742188 v -10.039062 c 0 -0.964844 0.78125 -1.746094 1.742188 -1.746094 z m 0 0" fill="#1a1a1a"/>
    <path d="m 7.609375 11.84375 c -0.730469 0 -1.3125 -0.210938 -1.75 -0.640625 c -0.429687 -0.425781 -0.640625 -0.984375 -0.640625 -1.671875 c 0 -0.75 0.265625 -1.335938 0.796875 -1.765625 c 0.53125 -0.4375 1.273437 -0.65625 2.234375 -0.65625 h 1.453125 v -0.46875 c 0 -0.269531 -0.101563 -0.484375 -0.296875 -0.640625 c -0.1875 -0.164062 -0.464844 -0.25 -0.828125 -0.25 c -0.34375 0 -0.617187 0.070312 -0.8125 0.203125 c -0.199219 0.136719 -0.308594 0.335937 -0.328125 0.59375 h -1.90625 c 0.019531 -0.726563 0.300781 -1.304687 0.84375 -1.734375 c 0.550781 -0.425781 1.296875 -0.640625 2.234375 -0.640625 c 0.976563 0 1.738281 0.226563 2.28125 0.671875 c 0.550781 0.449219 0.828125 1.074219 0.828125 1.875 v 4.984375 h -1.953125 v -1.28125 c -0.09375 0.4375 -0.335937 0.789063 -0.71875 1.046875 c -0.375 0.25 -0.855469 0.375 -1.4375 0.375 z m 0.71875 -1.625 c 0.414063 0 0.75 -0.101562 1 -0.3125 c 0.25 -0.207031 0.375 -0.484375 0.375 -0.828125 v -0.75 h -1.421875 c -0.355469 0 -0.632812 0.089844 -0.828125 0.265625 c -0.1875 0.167969 -0.28125 0.390625 -0.28125 0.671875 s 0.097656 0.511719 0.296875 0.6875 c 0.195312 0.179687 0.484375 0.265625 0.859375 0.265625 z m -3.796875 -12.242188" fill="#ffffff"/>
</svg>
