<?xml version="1.0" encoding="UTF-8"?>
<svg height="128px" viewBox="0 0 128 128" width="128px" xmlns="http://www.w3.org/2000/svg" xmlns:xlink="http://www.w3.org/1999/xlink">
    <linearGradient id="a" gradientUnits="userSpaceOnUse">
        <stop offset="0" stop-color="#77767b"/>
        <stop offset="0.0384615" stop-color="#c0bfbc"/>
        <stop offset="0.0768555" stop-color="#9a9996"/>
        <stop offset="0.923077" stop-color="#9a9996"/>
        <stop offset="0.961538" stop-color="#c0bfbc"/>
        <stop offset="1" stop-color="#77767b"/>
    </linearGradient>
    <linearGradient id="b" gradientTransform="matrix(0.232143 0 0 0.328947 -8.104156 264.028173)" x1="88.595886" x2="536.595886" xlink:href="#a" y1="-449.394012" y2="-449.394012"/>
    <linearGradient id="c" gradientTransform="matrix(0.232143 0 0 0.328947 -8.506561 261.211271)" x1="88.595886" x2="536.595886" xlink:href="#a" y1="-449.394012" y2="-449.394012"/>
    <linearGradient id="d" gradientUnits="userSpaceOnUse" x1="64.060364" x2="64.060364" y1="111.384306" y2="7.384306">
        <stop offset="0" stop-color="#222222"/>
        <stop offset="1" stop-opacity="0"/>
    </linearGradient>
    <path d="m 20.460938 16.203125 h 88 c 4.421874 0 8 3.578125 8 8 v 84 c 0 4.417969 -3.578126 8 -8 8 h -88 c -4.417969 0 -8 -3.582031 -8 -8 v -84 c 0 -4.421875 3.582031 -8 8 -8 z m 0 0" fill="url(#b)"/>
    <path d="m 20.460938 12.203125 h 88 c 4.421874 0 8 3.578125 8 8 v 84 c 0 4.417969 -3.578126 8 -8 8 h -88 c -4.417969 0 -8 -3.582031 -8 -8 v -84 c 0 -4.421875 3.582031 -8 8 -8 z m 0 0" fill="#deddda"/>
    <path d="m 20.058594 13.382812 h 88 c 4.421875 0 8 3.582032 8 8 v 84 c 0 4.417969 -3.578125 8 -8 8 h -88 c -4.417969 0 -8 -3.582031 -8 -8 v -84 c 0 -4.417968 3.582031 -8 8 -8 z m 0 0" fill="url(#c)"/>
    <path d="m 20.058594 9.382812 h 88 c 4.421875 0 8 3.582032 8 8 v 84 c 0 4.417969 -3.578125 8 -8 8 h -88 c -4.417969 0 -8 -3.582031 -8 -8 v -84 c 0 -4.417968 3.582031 -8 8 -8 z m 0 0" fill="url(#d)"/>
    <path d="m 30.277344 19.832032 h 67.804687 c 5.890625 0 10.664063 4.773437 10.664063 10.664062 v 61.367188 c 0 5.890625 -4.773438 10.664062 -10.664063 10.664062 h -67.804687 c -5.890625 0 -10.664063 -4.773437 -10.664063 -10.664062 v -61.367188 c 0 -5.890625 4.773438 -10.664062 10.664063 -10.664062 z m 0 0" fill="#1a1a1a" stroke="#ffffff" stroke-width="1.85312"/>
    <g fill="#1bacbb">
        <path d="m 35.8125 30.90625 c 0 2.664062 -2.160156 4.828125 -4.828125 4.828125 c -2.664063 0 -4.824219 -2.164063 -4.824219 -4.828125 c 0 -2.667969 2.160156 -4.828125 4.824219 -4.828125 c 2.667969 0 4.828125 2.160156 4.828125 4.828125 z m 0 0"/>
        <path d="m 41.390625 84.574219 v -31.15625 h 6.1875 v 4.265625 c 0.507813 -1.476563 1.316406 -2.628906 2.421875 -3.453125 c 1.113281 -0.820313 2.457031 -1.234375 4.03125 -1.234375 c 1.5 0 2.816406 0.390625 3.953125 1.171875 c 1.144531 0.78125 2.035156 1.855469 2.671875 3.21875 c 0.644531 1.367187 0.96875 2.960937 0.96875 4.78125 v 5.96875 c 0 1.792969 -0.324219 3.382812 -0.96875 4.765625 c -0.636719 1.375 -1.527344 2.453125 -2.671875 3.234375 c -1.136719 0.78125 -2.453125 1.171875 -3.953125 1.171875 c -1.542969 0 -2.871094 -0.402344 -3.984375 -1.203125 c -1.105469 -0.8125 -1.914063 -1.945313 -2.421875 -3.40625 l 0.171875 5.46875 v 6.40625 z m 10.15625 -12.8125 c 1.164063 0 2.066406 -0.332031 2.703125 -1 c 0.644531 -0.664063 0.96875 -1.613281 0.96875 -2.84375 v -5.546875 c 0 -1.25 -0.324219 -2.195313 -0.96875 -2.84375 c -0.636719 -0.65625 -1.539062 -0.984375 -2.703125 -0.984375 c -1.21875 0 -2.152344 0.351562 -2.796875 1.046875 c -0.636719 0.6875 -0.953125 1.6875 -0.953125 3 v 5.125 c 0 1.304687 0.316406 2.304687 0.953125 3 c 0.644531 0.699218 1.578125 1.046875 2.796875 1.046875 z m 16.039063 5.125 v -5.765625 h 6.1875 v -19.625 h -6.1875 v -5.765625 h 18.78125 v 5.765625 h -6.1875 v 19.625 h 6.1875 v 5.765625 z m -29.007813 -43.519531"/>
    </g>
</svg>
